<?xml version="1.0"?><svg xmlns="http://www.w3.org/2000/svg" width="900" height="360" viewBox="0 0 900 360" font-family="sans-serif"><rect width="900" height="360" fill="white"/><text x="450" y="28" text-anchor="middle" font-size="14" font-weight="bold" fill="#111">nanogpt-edu / smoke  (0.86M params, 12 log points)</text><line x1="60" y1="60" x2="60" y2="300" stroke="#888"/><line x1="60" y1="300" x2="840" y2="300" stroke="#888"/><line x1="56" y1="300.0" x2="60" y2="300.0" stroke="#888"/><text x="52" y="304.0" text-anchor="end" font-size="10" fill="#444">1.78</text><line x1="60.0" y1="300" x2="60.0" y2="304" stroke="#888"/><text x="60.0" y="318" text-anchor="middle" font-size="10" fill="#444">0</text><line x1="56" y1="240.0" x2="60" y2="240.0" stroke="#888"/><text x="52" y="244.0" text-anchor="end" font-size="10" fill="#444">2.39</text><line x1="255.0" y1="300" x2="255.0" y2="304" stroke="#888"/><text x="255.0" y="318" text-anchor="middle" font-size="10" fill="#444">68</text><line x1="56" y1="180.00000000000003" x2="60" y2="180.00000000000003" stroke="#888"/><text x="52" y="184.00000000000003" text-anchor="end" font-size="10" fill="#444">3.00</text><line x1="450.0" y1="300" x2="450.0" y2="304" stroke="#888"/><text x="450.0" y="318" text-anchor="middle" font-size="10" fill="#444">137</text><line x1="56" y1="120.0" x2="60" y2="120.0" stroke="#888"/><text x="52" y="124.0" text-anchor="end" font-size="10" fill="#444">3.62</text><line x1="645.0" y1="300" x2="645.0" y2="304" stroke="#888"/><text x="645.0" y="318" text-anchor="middle" font-size="10" fill="#444">206</text><line x1="56" y1="60.0" x2="60" y2="60.0" stroke="#888"/><text x="52" y="64.0" text-anchor="end" font-size="10" fill="#444">4.23</text><line x1="840.0" y1="300" x2="840.0" y2="304" stroke="#888"/><text x="840.0" y="318" text-anchor="middle" font-size="10" fill="#444">275</text><polyline fill="none" stroke="#0066cc" stroke-width="1.2" opacity="0.7" points="60.0,60.0 130.9,172.7 201.8,218.6 272.7,241.1 343.6,253.5 414.5,267.0 485.5,275.4 556.4,286.1 627.3,288.4 698.2,290.6 769.1,294.7 840.0,300.0"/><polyline fill="none" stroke="#cc3300" stroke-width="2" points="343.6,254.9 627.3,279.2"/><rect x="700" y="70" width="180" height="50" fill="white" stroke="#aaa"/><line x1="710" y1="88" x2="740" y2="88" stroke="#0066cc" stroke-width="2"/><text x="745" y="92" font-size="11" fill="#222">train loss</text><line x1="710" y1="108" x2="740" y2="108" stroke="#cc3300" stroke-width="2"/><text x="745" y="112" font-size="11" fill="#222">val (eval)</text></svg>